<svg width="172" height="24" viewBox="0 0 172 24" fill="none" xmlns="http://www.w3.org/2000/svg">
<path d="M18.5192 23.4439V0.290771H13.8853V15.5487L4.95679 0.290771H0V23.4439H4.63393V8.20198L13.5624 23.4439H18.5192Z" fill="#465EFD"/>
<path d="M37.6934 23.4439V18.8099H26.4557V14.1921H34.0606V9.55863H26.4557V4.9247H37.6934V0.290771H21.8223V23.4439H37.6934Z" fill="#465EFD"/>
<path d="M49.6664 23.4439V4.9247H56.609V0.290771H38.0898V4.9247H45.0485V23.4439H49.6664Z" fill="#465EFD"/>
<path d="M80.0304 11.9642C80.0304 10.8661 79.888 9.80611 79.6023 8.78334C79.3171 7.76103 78.9162 6.80806 78.3995 5.92537C77.8829 5.04313 77.2587 4.23575 76.5267 3.50369C75.7946 2.77163 74.9877 2.1475 74.105 1.63083C73.2223 1.11416 72.2698 0.71323 71.247 0.428029C70.2247 0.142829 69.1643 0 68.0662 0C66.9685 0 65.9109 0.142829 64.8936 0.428029C63.8764 0.71323 62.9239 1.11416 62.0356 1.63083C61.1479 2.1475 60.3378 2.77163 59.6057 3.50369C58.8741 4.23575 58.2468 5.04313 57.725 5.92537C57.2029 6.80806 56.7992 7.76103 56.514 8.78334C56.2288 9.80611 56.0859 10.8661 56.0859 11.9642C56.0859 13.0623 56.2288 14.1195 56.514 15.1367C56.7992 16.154 57.2029 17.1065 57.725 17.9947C58.2468 18.8825 58.8741 19.6926 59.6057 20.4246C60.3378 21.1567 61.1479 21.7836 62.0356 22.3053C62.9239 22.8275 63.8764 23.2312 64.8936 23.5164C65.9109 23.8016 66.9685 23.9444 68.0662 23.9444C69.1643 23.9444 70.2247 23.8016 71.247 23.5164C72.2698 23.2312 73.2223 22.8275 74.105 22.3053C74.9877 21.7836 75.7946 21.1567 76.5267 20.4246C77.2587 19.6926 77.8829 18.8825 78.3995 17.9947C78.9162 17.1065 79.3171 16.154 79.6023 15.1367C79.888 14.1195 80.0304 13.0623 80.0304 11.9642ZM75.429 11.9642C75.429 12.9759 75.2352 13.9257 74.8476 14.8139C74.46 15.7021 73.9355 16.4796 73.2733 17.1469C72.6115 17.8142 71.8312 18.3419 70.9324 18.7291C70.0336 19.1167 69.0779 19.3105 68.0662 19.3105C67.0439 19.3105 66.0859 19.1167 65.1921 18.7291C64.2989 18.3419 63.5186 17.8142 62.8513 17.1469C62.184 16.4796 61.6563 15.7021 61.2691 14.8139C60.8815 13.9257 60.6877 12.9759 60.6877 11.9642C60.6877 10.9524 60.8815 9.99716 61.2691 9.09839C61.6563 8.19962 62.184 7.41888 62.8513 6.75708C63.5186 6.09529 64.2989 5.57036 65.1921 5.18274C66.0859 4.79559 67.0439 4.60178 68.0662 4.60178C69.0779 4.60178 70.0332 4.79559 70.9324 5.18274C71.8312 5.57036 72.6115 6.09529 73.2733 6.75708C73.9355 7.41888 74.46 8.19962 74.8476 9.09839C75.2352 9.99716 75.429 10.9524 75.429 11.9642Z" fill="#465EFD"/>
<path d="M105.049 16.8241V0.290771H100.431V16.8241C100.431 17.147 100.369 17.451 100.246 17.7362C100.122 18.0214 99.955 18.2689 99.7452 18.4788C99.5353 18.6887 99.2905 18.8531 99.0103 18.9716C98.7306 19.0901 98.4294 19.1489 98.1065 19.1489C97.7832 19.1489 97.4819 19.0901 97.2022 18.9716C96.9221 18.8531 96.6773 18.6887 96.4674 18.4788C96.2575 18.2689 96.0936 18.0214 95.9751 17.7362C95.8566 17.451 95.7974 17.147 95.7974 16.8241V0.290771H91.1634V16.8241C91.1634 17.147 91.1042 17.451 90.9862 17.7362C90.8677 18.0214 90.7033 18.2689 90.4934 18.4788C90.2835 18.6887 90.0387 18.8531 89.759 18.9716C89.4789 19.0901 89.1776 19.1489 88.8547 19.1489C88.5319 19.1489 88.2306 19.0901 87.9504 18.9716C87.6708 18.8531 87.426 18.6887 87.2161 18.4788C87.0062 18.2689 86.8418 18.0214 86.7233 17.7362C86.6053 17.451 86.546 17.147 86.546 16.8241V0.290771H81.9121V16.8241C81.9121 17.7821 82.0921 18.6837 82.4531 19.5287C82.8136 20.3733 83.3087 21.1108 83.9384 21.7405C84.568 22.3701 85.3056 22.8652 86.1502 23.2257C86.9952 23.5867 87.8967 23.7667 88.8547 23.7667C89.7158 23.7667 90.5448 23.6161 91.3412 23.3148C92.1375 23.0131 92.8535 22.5722 93.4887 21.9908C94.1238 22.5722 94.8366 23.0131 95.6279 23.3148C96.4192 23.6161 97.2454 23.7667 98.1065 23.7667C99.0645 23.7667 99.9656 23.5867 100.811 23.2257C101.656 22.8652 102.393 22.3701 103.023 21.7405C103.653 21.1108 104.148 20.3733 104.508 19.5287C104.869 18.6837 105.049 17.7821 105.049 16.8241Z" fill="#465EFD"/>
<path d="M130.876 11.9642C130.876 10.8661 130.733 9.80611 130.448 8.78334C130.163 7.76103 129.762 6.80806 129.245 5.92537C128.729 5.04313 128.104 4.23575 127.372 3.50369C126.64 2.77163 125.833 2.1475 124.95 1.63083C124.068 1.11416 123.115 0.71323 122.092 0.428029C121.07 0.142829 120.01 0 118.912 0C117.814 0 116.756 0.142829 115.739 0.428029C114.722 0.71323 113.769 1.11416 112.881 1.63083C111.993 2.1475 111.183 2.77163 110.451 3.50369C109.719 4.23575 109.092 5.04313 108.57 5.92537C108.048 6.80806 107.644 7.76103 107.359 8.78334C107.074 9.80611 106.932 10.8661 106.932 11.9642C106.932 13.0623 107.074 14.1195 107.359 15.1367C107.644 16.154 108.048 17.1065 108.57 17.9947C109.092 18.8825 109.719 19.6926 110.451 20.4246C111.183 21.1567 111.993 21.7836 112.881 22.3053C113.769 22.8275 114.722 23.2312 115.739 23.5164C116.756 23.8016 117.814 23.9444 118.912 23.9444C120.01 23.9444 121.07 23.8016 122.092 23.5164C123.115 23.2312 124.068 22.8275 124.95 22.3053C125.833 21.7836 126.64 21.1567 127.372 20.4246C128.104 19.6926 128.729 18.8825 129.245 17.9947C129.762 17.1065 130.163 16.154 130.448 15.1367C130.733 14.1195 130.876 13.0623 130.876 11.9642ZM126.274 11.9642C126.274 12.9759 126.08 13.9257 125.693 14.8139C125.305 15.7021 124.781 16.4796 124.119 17.1469C123.457 17.8142 122.676 18.3419 121.778 18.7291C120.879 19.1167 119.924 19.3105 118.912 19.3105C117.889 19.3105 116.931 19.1167 116.038 18.7291C115.144 18.3419 114.364 17.8142 113.697 17.1469C113.029 16.4796 112.502 15.7021 112.114 14.8139C111.727 13.9257 111.533 12.9759 111.533 11.9642C111.533 10.9524 111.727 9.99716 112.114 9.09839C112.502 8.19962 113.029 7.41888 113.697 6.75708C114.364 6.09529 115.144 5.57036 116.038 5.18274C116.931 4.79559 117.889 4.60178 118.912 4.60178C119.924 4.60178 120.879 4.79559 121.778 5.18274C122.676 5.57036 123.457 6.09529 124.119 6.75708C124.781 7.41888 125.305 8.19962 125.693 9.09839C126.08 9.99716 126.274 10.9524 126.274 11.9642Z" fill="#465EFD"/>
<path d="M137.552 4.9247H142.185C142.821 4.9247 143.418 5.04549 143.978 5.28797C144.537 5.53 145.027 5.86113 145.447 6.28089C145.867 6.70066 146.198 7.19298 146.44 7.75833C146.682 8.32322 146.803 8.92347 146.803 9.55863C146.803 10.1933 146.682 10.7936 146.44 11.3589C146.198 11.9238 145.867 12.4161 145.447 12.8359C145.027 13.2557 144.537 13.5868 143.978 13.8288C143.418 14.0713 142.821 14.1921 142.185 14.1921H137.552V4.9247ZM137.552 23.4439V18.8099L142.735 18.7778L144.753 23.4439H149.677L147.11 17.389C147.777 16.9692 148.38 16.4742 148.919 15.9038C149.456 15.3334 149.911 14.7088 150.283 14.0309C150.654 13.3526 150.939 12.637 151.139 11.8834C151.337 11.1298 151.437 10.355 151.437 9.55863C151.437 8.70808 151.327 7.89014 151.106 7.10435C150.886 6.31855 150.573 5.58144 150.17 4.89209C149.766 4.2032 149.282 3.57631 148.716 3.01142C148.152 2.44608 147.527 1.96202 146.844 1.55833C146.16 1.15464 145.425 0.842342 144.64 0.621898C143.854 0.400994 143.036 0.290771 142.185 0.290771H132.918V23.4439H137.552Z" fill="#465EFD"/>
<path d="M158.114 23.4439V18.8099L161.65 14.0791L166.737 23.4439H172L164.686 10.0588L172 0.290771H166.737L158.114 11.8673V0.290771H153.48V23.4439H158.114Z" fill="#465EFD"/>
</svg>
