<svg width="0" height="0" lass="hidden">
  <symbol fill="none" xmlns="http://www.w3.org/2000/svg" viewBox="0 0 24 24" id="eye-open">
    <path d="M1 12C1 12 5 4 12 4C19 4 23 12 23 12" stroke="currentColor" stroke-width="2" stroke-linecap="round" stroke-linejoin="round"></path>
    <path d="M1 12C1 12 5 20 12 20C19 20 23 12 23 12" stroke="currentColor" stroke-width="2" stroke-linecap="round" stroke-linejoin="round"></path>
    <circle cx="12" cy="12" r="3" stroke="currentColor" stroke-width="2" stroke-linecap="round" stroke-linejoin="round"></circle>
  </symbol>
  <symbol fill="currentColor" xmlns="http://www.w3.org/2000/svg" viewBox="0 0 24 24" id="eye-close">
    <path d="M2 2L22 22" stroke="currentColor" stroke-width="2" stroke-linecap="round" stroke-linejoin="round"></path>
    <path d="M6.71277 6.7226C3.66479 8.79527 2 12 2 12C2 12 5.63636 19 12 19C14.0503 19 15.8174 18.2734 17.2711 17.2884M11 5.05822C11.3254 5.02013 11.6588 5 12 5C18.3636 5 22 12 22 12C22 12 21.3082 13.3317 20 14.8335" stroke="currentColor" stroke-width="2" stroke-linecap="round" stroke-linejoin="round"></path>
    <path d="M14 14.2362C13.4692 14.7112 12.7684 15.0001 12 15.0001C10.3431 15.0001 9 13.657 9 12.0001C9 11.1764 9.33193 10.4303 9.86932 9.88818" stroke="currentColor" stroke-width="2" stroke-linecap="round" stroke-linejoin="round"></path>
  </symbol>

    <symbol fill="none" xmlns="http://www.w3.org/2000/svg" viewBox="0 0 320 320" id="account-verified">
    <path d="M213.76 22.1313C213.76 22.1313 164.224 4.51847 115.603 32.5633C66.9823 60.6081 42.4319 116.269 21.3631 160.858C0.294296 205.446 12.4031 250.81 49.5231 271.488C86.6431 292.166 111.878 261.683 163.949 260.198C216.019 258.714 230.041 266.157 273.28 236.742C316.518 207.328 324.294 137.856 290.214 86.4577C256.134 35.0593 213.76 22.1313 213.76 22.1313Z" fill="#465EFD" fill-opacity="0.2"></path>
    <path d="M26.1954 181.312C26.1954 181.312 27.3858 183.571 26.3298 185.69C25.2738 187.808 23.9426 189.933 24.7362 190.995C25.5298 192.058 27.9362 193.382 27.6546 195.635C27.373 197.888 24.205 202.4 26.1954 204.922C28.1858 207.443 31.501 207.309 31.6354 210.093C31.7698 212.877 28.4354 215.13 29.3762 217.651C30.317 220.173 35.7762 220.704 35.7762 222.426C35.7762 224.147 33.6514 226.01 35.3794 227.866C37.1074 229.722 45.4402 234.566 46.605 232.576C47.7698 230.586 50.2018 225.082 48.621 217.267C48.3522 215.955 46.4834 215.661 46.221 213.805C45.9586 211.949 46.7522 208.634 45.4274 206.765C44.1026 204.896 39.853 204.243 39.5906 202.784C39.3282 201.325 41.1778 197.747 39.3218 195.494C37.4658 193.242 33.0882 192.192 33.0882 190.72C33.0882 189.248 34.4194 187.405 32.5634 185.414C30.7074 183.424 26.1954 181.312 26.1954 181.312Z" fill="#465EFD"></path>
    <path d="M32.5439 196.941C35.3087 205.261 40.1471 216.569 42.1119 222.029C44.4991 228.659 46.5919 233.459 47.6351 240.089C48.6783 246.72 49.2799 291.129 49.2799 291.129" stroke="#263238" stroke-width="0.64" stroke-linecap="round" stroke-linejoin="round"></path>
    <path d="M26.8796 182.112C26.8796 182.112 29.1324 183.968 31.1228 192.058C31.2508 192.576 31.398 193.126 31.558 193.709" stroke="#263238" stroke-width="0.64" stroke-linecap="round" stroke-linejoin="round"></path>
    <path d="M67.6477 196.422C67.3778 196.965 67.2289 197.559 67.2113 198.165C67.1936 198.77 67.3075 199.372 67.5453 199.93C68.3901 201.626 69.4653 203.322 68.8253 204.173C68.1853 205.024 66.2653 206.093 66.4893 207.885C66.7133 209.677 69.2477 213.299 67.6541 215.315C66.0605 217.331 63.4109 217.235 63.3021 219.456C63.1933 221.677 65.8621 223.488 65.1069 225.504C64.3517 227.52 59.9869 227.949 59.9869 229.344C59.9869 230.739 61.6893 232.211 60.3069 233.696C58.9245 235.181 52.2685 239.04 51.3149 237.44C50.3613 235.84 48.4413 231.443 49.7021 225.19C49.9133 224.141 51.4109 223.91 51.6221 222.419C51.8333 220.928 51.1997 218.278 52.2621 216.794C53.3245 215.309 56.7421 214.778 56.9277 213.594C57.1133 212.41 55.6477 209.562 57.1389 207.757C58.6301 205.952 62.1309 205.101 62.1309 203.917C62.1309 202.733 61.0685 201.261 62.5533 199.667C64.0381 198.074 67.6477 196.422 67.6477 196.422Z" fill="#465EFD"></path>
    <path d="M62.5664 208.928C60.3584 215.603 56.4865 224.64 54.8865 229.005C52.9665 234.317 51.3152 238.157 50.4704 243.463C49.6256 248.768 49.1584 284.307 49.1584 284.307" stroke="#263238" stroke-width="0.64" stroke-linecap="round" stroke-linejoin="round"></path>
    <path d="M67.1171 197.062C67.1171 197.062 65.3122 198.547 63.725 205.024C63.6226 205.44 63.501 205.882 63.373 206.342" stroke="#263238" stroke-width="0.64" stroke-linecap="round" stroke-linejoin="round"></path>
    <path d="M31.1551 226.477C31.3798 226.929 31.5041 227.425 31.5195 227.929C31.535 228.434 31.4413 228.936 31.2447 229.402C30.5343 230.822 29.6447 232.237 30.1759 232.947C30.7071 233.658 32.3071 234.547 32.1279 236.051C31.9487 237.555 29.8239 240.576 31.1551 242.259C32.4863 243.942 34.7007 243.853 34.7903 245.715C34.8799 247.578 32.6399 249.088 33.2799 250.771C33.9199 252.454 37.5359 252.813 37.5359 253.971C37.5359 255.13 36.1215 256.365 37.2735 257.606C38.4255 258.848 43.9999 262.086 44.7999 260.755C45.5999 259.424 47.2063 255.744 46.1439 250.515C45.9711 249.638 44.7231 249.44 44.5439 248.198C44.3647 246.957 44.8959 244.742 44.0127 243.501C43.1295 242.259 40.2879 241.818 40.1087 240.838C39.9295 239.859 41.1711 237.472 39.9295 235.962C38.6879 234.451 35.7631 233.747 35.7631 232.762C35.7631 231.776 36.6527 230.541 35.4111 229.21C34.1695 227.878 31.1551 226.477 31.1551 226.477Z" fill="#465EFD"></path>
    <path d="M35.3984 236.928C37.248 242.503 40.48 250.048 41.7984 253.696C43.3984 258.131 44.7872 261.376 45.4912 265.773C46.1952 270.17 46.592 286.663 46.592 286.663" stroke="#263238" stroke-width="0.64" stroke-linecap="round" stroke-linejoin="round"></path>
    <path d="M31.5967 227.008C31.5967 227.008 33.1071 228.25 34.4319 233.658C34.5215 234.01 34.6175 234.374 34.7263 234.758" stroke="#263238" stroke-width="0.64" stroke-linecap="round" stroke-linejoin="round"></path>
    <path d="M76.7997 224.269C76.4763 224.657 76.2413 225.112 76.1109 225.6C75.9805 226.089 75.9578 226.6 76.0445 227.098C76.4093 228.64 76.9533 230.221 76.2685 230.79C75.5837 231.36 73.8365 231.859 73.6637 233.35C73.4909 234.842 74.8733 238.278 73.1901 239.616C71.5069 240.954 69.3501 240.352 68.8573 242.176C68.3645 244 70.1373 245.939 69.1709 247.437C68.2045 248.934 64.5629 248.448 64.2941 249.574C64.0253 250.701 65.1325 252.224 63.7245 253.171C62.3165 254.118 56.1725 256 55.6797 254.509C55.1869 253.018 54.4893 249.082 56.7101 244.237C57.0877 243.424 58.3485 243.52 58.8029 242.349C59.2573 241.178 59.2509 238.906 60.3965 237.901C61.5421 236.896 64.4093 237.107 64.8061 236.198C65.2029 235.29 64.5373 232.678 66.0861 231.494C67.6349 230.31 70.6493 230.291 70.8733 229.338C71.0973 228.384 70.5149 226.982 72.0317 225.971C73.5485 224.96 76.7997 224.269 76.7997 224.269Z" fill="#465EFD"></path>
    <path d="M70.3041 233.466C67.2321 238.47 62.3553 245.082 60.2433 248.333C57.6833 252.282 54.5922 254.81 53.8818 259.245C53.1714 263.68 52.7874 280.134 52.7874 280.134" stroke="#263238" stroke-width="0.64" stroke-linecap="round" stroke-linejoin="round"></path>
    <path d="M76.2753 224.685C76.2753 224.685 74.5217 225.549 71.9937 230.509C71.8273 230.829 71.6481 231.149 71.4497 231.514" stroke="#263238" stroke-width="0.64" stroke-linecap="round" stroke-linejoin="round"></path>
    <path d="M45.3314 296.128H55.1938C60.3842 293.453 64.0706 286.682 64.0706 278.739C64.1549 273.978 62.7004 269.316 59.9234 265.447H40.6018C37.8338 269.319 36.3884 273.98 36.4802 278.739C36.4802 286.682 40.141 293.453 45.3314 296.128Z" fill="white" stroke="#263238" stroke-width="0.64" stroke-linecap="round" stroke-linejoin="round"></path>
    <path d="M55.3727 296.128H45.3311V297.6H55.3727V296.128Z" fill="white" stroke="#263238" stroke-width="0.64" stroke-linecap="round" stroke-linejoin="round"></path>
    <path d="M192.243 48H35.0332V166.989H192.243V48Z" stroke="#263238" stroke-width="0.64" stroke-linecap="round" stroke-linejoin="round"></path>
    <path d="M188.57 51.155H38.7012V163.84H188.57V51.155Z" stroke="#263238" stroke-width="0.64" stroke-linecap="round" stroke-linejoin="round"></path>
    <path d="M84.3837 67.6927C84.3837 67.6927 59.8973 65.92 57.8365 69.76C55.7757 73.6 57.2413 143.808 58.4253 144.691C59.6093 145.574 92.6461 146.163 95.8909 144.986C99.1357 143.808 94.7197 72.4096 94.7197 70.3424C94.7197 68.2752 87.0397 67.392 87.0397 67.392" stroke="#263238" stroke-width="1.28" stroke-linecap="round" stroke-linejoin="round"></path>
    <path d="M60.3647 125.805C60.4159 135.059 60.6143 141.843 61.0815 142.029C62.5535 142.618 93.8239 145.274 94.7071 142.323C95.5903 139.373 92.3455 72.7041 92.3455 72.7041" stroke="#263238" stroke-width="1.28" stroke-linecap="round" stroke-linejoin="round"></path>
    <path d="M91.1681 72.4096C91.1681 72.4096 61.3761 71.232 61.0881 72.704C60.8961 73.6448 60.3521 101.286 60.3585 121.382" stroke="#263238" stroke-width="1.28" stroke-linecap="round" stroke-linejoin="round"></path>
    <path d="M61.9651 77.7214H90.8739" stroke="#263238" stroke-width="1.28" stroke-linecap="round" stroke-linejoin="round"></path>
    <path d="M88.2179 76.3837C86.4515 78.2525 88.2179 76.3837 89.4019 73.7149C90.5859 71.0461 88.2179 74.2461 85.5619 76.3837C82.9059 78.5213 84.3843 76.9213 85.2675 73.9837C86.1507 71.0461 84.3843 73.9837 82.0227 75.8525C79.6611 77.7213 80.8451 76.9213 81.7283 73.7149C82.6115 70.5085 81.7283 73.7149 78.1891 75.8525C74.6499 77.9901 76.4163 77.9837 78.1891 74.7837C79.9619 71.5837 77.0115 74.7837 73.7667 75.8525C70.5219 76.9213 73.7667 75.8525 74.9443 72.9149C76.1219 69.9773 72.8771 73.7149 70.5219 75.3149C68.1667 76.9149 70.5219 75.3149 71.1107 73.4461C71.6995 71.5773 69.6323 73.9837 67.2707 76.3837C64.9091 78.7837 67.2707 76.3837 67.5651 74.2461C67.8595 72.1085 64.9091 77.7213 64.9091 77.7213C64.9091 77.7213 65.7923 72.3773 65.2035 73.7149C64.8108 74.5724 64.3143 75.3785 63.7251 76.1149" stroke="#465EFD" stroke-width="1.28" stroke-linecap="round" stroke-linejoin="round"></path>
    <path d="M77.8941 82.7329H63.4365V97.7793H77.8941V82.7329Z" stroke="#465EFD" stroke-width="1.28" stroke-linecap="round" stroke-linejoin="round"></path>
    <path d="M66.3869 82.7329L64.0317 85.3889L69.0429 83.6225L64.0317 88.3393L72.2877 83.0273L64.0317 91.8785L75.2381 83.6225L63.4365 94.5345L77.5997 84.8001L63.4365 97.7793L77.5997 88.3393L67.5709 97.1905L77.8941 91.5841L71.4045 96.8961L77.5997 94.8289L76.4157 96.8961" stroke="#465EFD" stroke-width="1.28" stroke-linecap="round" stroke-linejoin="round"></path>
    <path d="M90.355 128.755H79.3022V140.262H90.355V128.755Z" stroke="#465EFD" stroke-width="1.28" stroke-linecap="round" stroke-linejoin="round"></path>
    <path d="M81.555 128.755L79.7502 130.784L83.5838 129.434L79.7502 133.043L86.067 128.979L79.7502 135.75L88.3198 129.434L79.3022 137.779L90.1246 130.336L79.3022 140.262L90.1246 133.043L82.4574 139.808L90.355 135.52L85.3886 139.584L90.1246 138.003L89.2222 139.584" stroke="#465EFD" stroke-width="1.28" stroke-linecap="round" stroke-linejoin="round"></path>
    <path d="M63.1421 103.385H91.4621" stroke="#263238" stroke-width="1.28" stroke-linecap="round" stroke-linejoin="round"></path>
    <path d="M62.8481 106.042L90.8738 106.336" stroke="#263238" stroke-width="1.28" stroke-linecap="round" stroke-linejoin="round"></path>
    <path d="M80.845 83.6223H89.9906" stroke="#263238" stroke-width="1.28" stroke-linecap="round" stroke-linejoin="round"></path>
    <path d="M80.845 87.1616H89.9906" stroke="#263238" stroke-width="1.28" stroke-linecap="round" stroke-linejoin="round"></path>
    <path d="M80.845 90.7009H89.9906" stroke="#263238" stroke-width="1.28" stroke-linecap="round" stroke-linejoin="round"></path>
    <path d="M80.845 94.2402H89.9906" stroke="#263238" stroke-width="1.28" stroke-linecap="round" stroke-linejoin="round"></path>
    <path d="M90.8733 107.808H63.4365V121.081H90.8733V107.808Z" stroke="#465EFD" stroke-width="1.28" stroke-linecap="round" stroke-linejoin="round"></path>
    <path d="M63.1423 110.464L66.9759 108.102L62.5535 114.886L69.9263 108.102L63.4367 117.843L74.9439 107.808L64.9151 119.609L77.3055 108.102L67.8655 119.609L81.4335 107.808L70.5215 120.787L84.0895 108.102L73.7663 120.198L87.6287 107.808L77.0111 120.787L90.8735 107.808L80.8447 120.493L90.2847 112.237L84.0895 119.904L90.2847 115.776L89.0687 117.747L87.9231 119.609" stroke="#465EFD" stroke-width="1.28" stroke-linecap="round" stroke-linejoin="round"></path>
    <path d="M64.6213 124.627H89.9909" stroke="#263238" stroke-width="1.28" stroke-linecap="round" stroke-linejoin="round"></path>
    <path d="M64.0317 127.872H72.2877" stroke="#263238" stroke-width="1.28" stroke-linecap="round" stroke-linejoin="round"></path>
    <path d="M95.8911 74.1825L116.141 71.6929" stroke="#263238" stroke-width="1.28" stroke-linecap="round" stroke-linejoin="round"></path>
    <path d="M92.646 88.6335H113.881" stroke="#263238" stroke-width="1.28" stroke-linecap="round" stroke-linejoin="round"></path>
    <path d="M59.014 115.482L49.8684 118.726" stroke="#263238" stroke-width="1.28" stroke-linecap="round" stroke-linejoin="round"></path>
    <path d="M84.9729 142.323C84.9729 142.323 83.2065 151.469 95.2961 153.843" stroke="#263238" stroke-width="1.28" stroke-linecap="round" stroke-linejoin="round"></path>
    <path d="M93.5295 151.469L96.4799 154.125L92.3455 155.302" stroke="#263238" stroke-width="1.28" stroke-linecap="round" stroke-linejoin="round"></path>
    <path d="M111.226 85.9778L115.949 88.9282L111.821 90.701" stroke="#263238" stroke-width="1.28" stroke-linecap="round" stroke-linejoin="round"></path>
    <path d="M112.307 70.8096L117.319 71.3984L113.779 74.6432" stroke="#263238" stroke-width="1.28" stroke-linecap="round" stroke-linejoin="round"></path>
    <path d="M51.0468 115.776L46.0356 119.904L52.2308 120.198" stroke="#263238" stroke-width="1.28" stroke-linecap="round" stroke-linejoin="round"></path>
    <path d="M128.634 85.9778H117.421V97.7794H128.634V85.9778Z" fill="#465EFD"></path>
    <path d="M120.077 88.6335L126.566 88.9279" stroke="#263238" stroke-width="1.28" stroke-linecap="round" stroke-linejoin="round"></path>
    <path d="M120.077 90.9951L126.566 91.2895" stroke="#263238" stroke-width="1.28" stroke-linecap="round" stroke-linejoin="round"></path>
    <path d="M120.077 93.3572L126.566 93.6516" stroke="#263238" stroke-width="1.28" stroke-linecap="round" stroke-linejoin="round"></path>
    <path d="M110.802 101.878L99.6667 103.192L101.05 114.913L112.185 113.599L110.802 101.878Z" fill="#465EFD"></path>
    <path d="M102.611 105.523L109.088 105.056" stroke="#263238" stroke-width="1.28" stroke-linecap="round" stroke-linejoin="round"></path>
    <path d="M102.886 107.866L109.363 107.398" stroke="#263238" stroke-width="1.28" stroke-linecap="round" stroke-linejoin="round"></path>
    <path d="M103.162 110.208L109.645 109.741" stroke="#263238" stroke-width="1.28" stroke-linecap="round" stroke-linejoin="round"></path>
    <path d="M52.6953 121.939L41.5598 123.253L42.9429 134.973L54.0784 133.659L52.6953 121.939Z" fill="#465EFD"></path>
    <path d="M44.4929 125.581L50.9761 125.114" stroke="#263238" stroke-width="1.28" stroke-linecap="round" stroke-linejoin="round"></path>
    <path d="M44.7676 127.93L51.2508 127.462" stroke="#263238" stroke-width="1.28" stroke-linecap="round" stroke-linejoin="round"></path>
    <path d="M45.05 130.272L51.5269 129.805" stroke="#263238" stroke-width="1.28" stroke-linecap="round" stroke-linejoin="round"></path>
    <path d="M110.634 146.493L99.4841 145.308L98.2362 157.043L109.386 158.229L110.634 146.493Z" fill="#465EFD"></path>
    <path d="M101.856 148.224L108.275 149.203" stroke="#263238" stroke-width="1.28" stroke-linecap="round" stroke-linejoin="round"></path>
    <path d="M101.606 150.573L108.025 151.552" stroke="#263238" stroke-width="1.28" stroke-linecap="round" stroke-linejoin="round"></path>
    <path d="M101.357 152.922L107.776 153.901" stroke="#263238" stroke-width="1.28" stroke-linecap="round" stroke-linejoin="round"></path>
    <path d="M192.236 166.989H35.0332V171.008H192.236V166.989Z" fill="#263238" stroke="#263238" stroke-width="0.64" stroke-linecap="round" stroke-linejoin="round"></path>
    <path d="M255.321 195.795V188.295H232.749V195.795C232.746 198.253 231.899 200.635 230.349 202.541L229.363 203.763H258.707L257.721 202.541C256.171 200.635 255.324 198.253 255.321 195.795Z" fill="#263238" stroke="#263238" stroke-width="0.64" stroke-linecap="round" stroke-linejoin="round"></path>
    <path d="M254.042 195.795V188.295H231.469V195.795C231.467 198.253 230.619 200.635 229.069 202.541L228.083 203.763H257.427L256.442 202.541C254.891 200.635 254.044 198.253 254.042 195.795Z" fill="white" stroke="#263238" stroke-width="0.64" stroke-linecap="round" stroke-linejoin="round"></path>
    <path d="M254.221 190.413H231.558V192.71H254.221V190.413Z" fill="#263238"></path>
    <path d="M282.688 124.039H202.816C199.819 124.039 197.389 126.468 197.389 129.466V185.229C197.389 188.226 199.819 190.656 202.816 190.656H282.688C285.685 190.656 288.115 188.226 288.115 185.229V129.466C288.115 126.468 285.685 124.039 282.688 124.039Z" fill="#263238" stroke="#263238" stroke-width="0.64" stroke-linecap="round" stroke-linejoin="round"></path>
    <path d="M285.126 124.039H205.254C202.257 124.039 199.827 126.468 199.827 129.466V185.229C199.827 188.226 202.257 190.656 205.254 190.656H285.126C288.123 190.656 290.553 188.226 290.553 185.229V129.466C290.553 126.468 288.123 124.039 285.126 124.039Z" fill="#263238" stroke="#263238" stroke-width="0.64" stroke-linecap="round" stroke-linejoin="round"></path>
    <path d="M197.389 180.301H288.122V185.229C288.122 186.668 287.55 188.048 286.532 189.066C285.514 190.084 284.134 190.656 282.695 190.656H202.823C201.383 190.656 200.003 190.084 198.985 189.066C197.967 188.048 197.395 186.668 197.395 185.229V180.301H197.389Z" fill="white" stroke="#263238" stroke-width="0.64" stroke-linecap="round" stroke-linejoin="round"></path>
    <path d="M283.552 128.186H201.952V175.251H283.552V128.186Z" fill="white"></path>
    <path d="M230.349 133.088H214.297C213.223 133.088 212.352 133.959 212.352 135.033V168.185C212.352 169.26 213.223 170.131 214.297 170.131H230.349C231.423 170.131 232.294 169.26 232.294 168.185V135.033C232.294 133.959 231.423 133.088 230.349 133.088Z" fill="#263238"></path>
    <path d="M230.624 136.192H214.029V167.015H230.624V136.192Z" fill="#465EFD"></path>
    <path d="M252.499 136.71H237.478V138.266H252.499V136.71Z" fill="#263238"></path>
    <path d="M244.736 140.083H237.741V147.334H244.736V140.083Z" fill="#465EFD"></path>
    <path d="M251.462 162.355H247.718V166.24H251.462V162.355Z" fill="#465EFD"></path>
    <path d="M252.16 152.512H237.914V159.763H252.16V152.512Z" fill="#465EFD"></path>
    <path d="M246.029 140.602H251.725" stroke="#263238" stroke-width="0.64" stroke-linecap="round" stroke-linejoin="round"></path>
    <path d="M246.029 142.413H251.725" stroke="#263238" stroke-width="0.64" stroke-linecap="round" stroke-linejoin="round"></path>
    <path d="M246.029 144.224H251.725" stroke="#263238" stroke-width="0.64" stroke-linecap="round" stroke-linejoin="round"></path>
    <path d="M246.029 146.035H251.725" stroke="#263238" stroke-width="0.64" stroke-linecap="round" stroke-linejoin="round"></path>
    <path d="M238.17 150.182H251.898" stroke="#263238" stroke-width="0.64" stroke-linecap="round" stroke-linejoin="round"></path>
    <path d="M238.17 161.581H251.898" stroke="#263238" stroke-width="0.64" stroke-linecap="round" stroke-linejoin="round"></path>
    <path d="M253.799 135.162H236.186V167.802H253.799V135.162Z" stroke="#263238" stroke-width="0.64" stroke-linecap="round" stroke-linejoin="round"></path>
    <path d="M275.296 135.162H258.72V147.334H275.296V135.162Z" fill="#BFBFBF"></path>
    <path d="M275.296 135.162H258.72V137.754H275.296V135.162Z" fill="#263238"></path>
    <path d="M264.339 139.635H260.007V143.827H264.339V139.635Z" stroke="#263238" stroke-width="0.64" stroke-linecap="round" stroke-linejoin="round"></path>
    <path d="M273.005 139.635H268.672V143.827H273.005V139.635Z" stroke="#263238" stroke-width="0.64" stroke-linecap="round" stroke-linejoin="round"></path>
    <path d="M273.702 136.633C273.702 136.76 273.665 136.884 273.594 136.989C273.524 137.094 273.424 137.176 273.307 137.225C273.19 137.273 273.062 137.286 272.937 137.261C272.813 137.236 272.699 137.175 272.61 137.086C272.52 136.996 272.459 136.882 272.435 136.758C272.41 136.634 272.423 136.505 272.471 136.388C272.52 136.272 272.602 136.172 272.707 136.101C272.812 136.031 272.936 135.993 273.062 135.993C273.232 135.993 273.395 136.061 273.515 136.181C273.635 136.301 273.702 136.464 273.702 136.633Z" fill="white"></path>
    <path d="M270.067 137.261C270.413 137.261 270.694 136.98 270.694 136.634C270.694 136.287 270.413 136.007 270.067 136.007C269.721 136.007 269.44 136.287 269.44 136.634C269.44 136.98 269.721 137.261 270.067 137.261Z" fill="white"></path>
    <path d="M273.971 153.933H261.28V163.258H273.971V153.933Z" fill="#BFBFBF"></path>
    <path d="M273.971 153.933H261.28V155.917H273.971V153.933Z" fill="#263238"></path>
    <path d="M272.755 155.059C272.756 155.156 272.729 155.25 272.676 155.331C272.624 155.412 272.548 155.475 272.459 155.513C272.371 155.551 272.273 155.562 272.178 155.544C272.083 155.526 271.996 155.48 271.927 155.412C271.859 155.344 271.812 155.258 271.792 155.163C271.773 155.068 271.782 154.97 271.819 154.881C271.855 154.792 271.918 154.716 271.998 154.662C272.078 154.608 272.172 154.579 272.269 154.579C272.397 154.579 272.519 154.63 272.611 154.72C272.702 154.809 272.754 154.931 272.755 155.059Z" fill="white"></path>
    <path d="M270.451 155.059C270.451 155.187 270.4 155.309 270.31 155.399C270.22 155.489 270.098 155.539 269.971 155.539C269.844 155.539 269.722 155.489 269.632 155.399C269.542 155.309 269.491 155.187 269.491 155.059C269.491 154.932 269.542 154.81 269.632 154.72C269.722 154.63 269.844 154.579 269.971 154.579C270.098 154.579 270.22 154.63 270.31 154.72C270.4 154.81 270.451 154.932 270.451 155.059Z" fill="white"></path>
    <path d="M209.971 130.656H204.64V172.467H209.971V130.656Z" fill="#BFBFBF"></path>
    <path d="M209.971 130.656H204.64V132.576H209.971V130.656Z" fill="#263238"></path>
    <path d="M208.48 133.856H205.92V136.845H208.48V133.856Z" stroke="#263238" stroke-width="0.64" stroke-linecap="round" stroke-linejoin="round"></path>
    <path d="M208.48 138.758H205.92V141.747H208.48V138.758Z" stroke="#263238" stroke-width="0.64" stroke-linecap="round" stroke-linejoin="round"></path>
    <path d="M208.48 143.667H205.92V146.656H208.48V143.667Z" stroke="#263238" stroke-width="0.64" stroke-linecap="round" stroke-linejoin="round"></path>
    <path d="M208.48 148.576H205.92V151.565H208.48V148.576Z" stroke="#263238" stroke-width="0.64" stroke-linecap="round" stroke-linejoin="round"></path>
    <path d="M208.48 153.478H205.92V156.467H208.48V153.478Z" stroke="#263238" stroke-width="0.64" stroke-linecap="round" stroke-linejoin="round"></path>
    <path d="M208.48 158.387H205.92V161.376H208.48V158.387Z" stroke="#263238" stroke-width="0.64" stroke-linecap="round" stroke-linejoin="round"></path>
    <path d="M208.48 163.296H205.92V166.285H208.48V163.296Z" stroke="#263238" stroke-width="0.64" stroke-linecap="round" stroke-linejoin="round"></path>
    <path d="M208.48 168.198H205.92V171.187H208.48V168.198Z" stroke="#263238" stroke-width="0.64" stroke-linecap="round" stroke-linejoin="round"></path>
    <path d="M281.229 130.227H213.389V131.936H281.229V130.227Z" fill="#BFBFBF"></path>
    <path d="M281.229 171.616H213.389V173.325H281.229V171.616Z" fill="#BFBFBF"></path>
    <path d="M257.434 203.763H228.083V205.101H257.434V203.763Z" fill="#263238" stroke="#263238" stroke-width="0.64" stroke-linecap="round" stroke-linejoin="round"></path>
    <path d="M276.621 202.669H208.48V205.101H276.621V202.669Z" fill="white" stroke="#263238" stroke-width="0.64" stroke-linecap="round" stroke-linejoin="round"></path>
    <path d="M147.418 297.6H144.646L143.258 212.691H148.806L147.418 297.6Z" fill="white" stroke="#263238" stroke-width="0.64" stroke-linecap="round" stroke-linejoin="round"></path>
    <path d="M147.417 297.6H146.195L146.361 212.691H148.806L147.417 297.6Z" fill="#263238" stroke="#263238" stroke-width="0.64" stroke-linecap="round" stroke-linejoin="round"></path>
    <path d="M186.925 297.6H184.153L182.765 212.691H188.313L186.925 297.6Z" fill="white" stroke="#263238" stroke-width="0.64" stroke-linecap="round" stroke-linejoin="round"></path>
    <path d="M186.925 297.6H185.703L185.869 212.691H188.314L186.925 297.6Z" fill="#263238" stroke="#263238" stroke-width="0.64" stroke-linecap="round" stroke-linejoin="round"></path>
    <path d="M172.781 297.6H170.003L168.621 212.691H174.163L172.781 297.6Z" fill="#263238" stroke="#263238" stroke-width="0.64" stroke-linecap="round" stroke-linejoin="round"></path>
    <path d="M172.781 297.6H171.559L171.719 212.691H174.164L172.781 297.6Z" fill="#263238" stroke="#263238" stroke-width="0.64" stroke-linecap="round" stroke-linejoin="round"></path>
    <path d="M199.475 297.6H196.697L195.315 212.691H200.857L199.475 297.6Z" fill="#263238" stroke="#263238" stroke-width="0.64" stroke-linecap="round" stroke-linejoin="round"></path>
    <path d="M199.475 297.6H198.246L198.413 212.691H200.858L199.475 297.6Z" fill="#263238" stroke="#263238" stroke-width="0.64" stroke-linecap="round" stroke-linejoin="round"></path>
    <path d="M201.555 213.99H158.048V267.11H201.555V213.99Z" fill="#263238" stroke="#263238" stroke-width="0.64" stroke-linecap="round" stroke-linejoin="round"></path>
    <path d="M189.542 213.99H146.035V267.11H189.542V213.99Z" fill="white" stroke="#263238" stroke-width="0.64" stroke-linecap="round" stroke-linejoin="round"></path>
    <path d="M277.414 297.6H274.643L273.254 212.691H278.803L277.414 297.6Z" fill="white" stroke="#263238" stroke-width="0.64" stroke-linecap="round" stroke-linejoin="round"></path>
    <path d="M277.414 297.6H276.192L276.358 212.691H278.803L277.414 297.6Z" fill="#263238" stroke="#263238" stroke-width="0.64" stroke-linecap="round" stroke-linejoin="round"></path>
    <path d="M302.778 297.6H300L298.618 212.691H304.16L302.778 297.6Z" fill="#263238" stroke="#263238" stroke-width="0.64" stroke-linecap="round" stroke-linejoin="round"></path>
    <path d="M302.777 297.6H301.555L301.715 212.691H304.16L302.777 297.6Z" fill="#263238" stroke="#263238" stroke-width="0.64" stroke-linecap="round" stroke-linejoin="round"></path>
    <path d="M305.913 209.491H139.603V215.335H305.913V209.491Z" fill="white" stroke="#263238" stroke-width="0.64" stroke-linecap="round" stroke-linejoin="round"></path>
    <path d="M305.913 209.491H139.603V212.41H305.913V209.491Z" fill="#263238" stroke="#263238" stroke-width="0.64" stroke-linecap="round" stroke-linejoin="round"></path>
    <path d="M305.913 209.491H281.363V215.335H305.913V209.491Z" fill="#263238" stroke="#263238" stroke-width="0.64" stroke-linecap="round" stroke-linejoin="round"></path>
    <path d="M311.29 204.8H135.092V210.643H311.29V204.8Z" fill="white" stroke="#263238" stroke-width="0.64" stroke-linecap="round" stroke-linejoin="round"></path>
    <path d="M311.29 204.8H286.739V210.643H311.29V204.8Z" fill="#263238" stroke="#263238" stroke-width="0.64" stroke-linecap="round" stroke-linejoin="round"></path>
    <path d="M186.88 219.092H148.8V237.652H186.88V219.092Z" fill="white" stroke="#263238" stroke-width="0.64" stroke-linecap="round" stroke-linejoin="round"></path>
    <path d="M172 226.451H163.68V229.331H172V226.451Z" fill="#263238" stroke="#263238" stroke-width="0.64" stroke-linecap="round" stroke-linejoin="round"></path>
    <path d="M186.88 242.451H148.8V261.011H186.88V242.451Z" fill="white" stroke="#263238" stroke-width="0.64" stroke-linecap="round" stroke-linejoin="round"></path>
    <path d="M172 249.811H163.68V252.691H172V249.811Z" fill="#263238" stroke="#263238" stroke-width="0.64" stroke-linecap="round" stroke-linejoin="round"></path>
    <path d="M245.497 247.981H256.876V225.095H245.497V247.981Z" fill="#263238"></path>
    <path d="M248.345 271.545H254.035V239.853H248.345V271.545Z" fill="#263238"></path>
    <path d="M253.504 269.107C253.504 269.107 258.285 274.535 270.573 276.423C277.063 277.421 283.821 278.663 289.683 281.767C293.453 283.763 300.96 288.135 300.96 293.127C300.966 293.86 300.792 294.583 300.453 295.233C300.114 295.883 299.621 296.44 299.016 296.855C298.412 297.271 297.715 297.531 296.986 297.614C296.258 297.696 295.52 297.599 294.838 297.33C294.156 297.062 293.55 296.629 293.074 296.072C292.598 295.514 292.266 294.849 292.107 294.133C291.948 293.417 291.967 292.673 292.163 291.967C292.358 291.26 292.725 290.612 293.229 290.08C290.159 285.462 285.4 282.234 279.975 281.088C270.631 279.053 263.808 279.885 250.663 271.143L253.504 269.107Z" fill="#263238"></path>
    <path d="M249.44 269.107C249.44 269.107 244.659 274.535 232.371 276.423C225.882 277.421 219.123 278.663 213.261 281.767C209.485 283.763 201.984 288.135 201.984 293.127C201.977 293.86 202.151 294.585 202.489 295.236C202.828 295.887 203.321 296.445 203.926 296.861C204.53 297.276 205.228 297.537 205.957 297.62C206.686 297.703 207.425 297.606 208.107 297.337C208.79 297.067 209.396 296.635 209.872 296.076C210.349 295.518 210.68 294.851 210.839 294.134C210.997 293.418 210.976 292.673 210.779 291.966C210.582 291.259 210.215 290.612 209.709 290.08C212.78 285.464 217.539 282.235 222.963 281.088C232.314 279.053 239.136 279.885 252.282 271.143L249.44 269.107Z" fill="#263238"></path>
    <path d="M249.248 297.6H253.543C253.776 297.6 253.965 297.411 253.965 297.178V289.626C253.965 289.392 253.776 289.203 253.543 289.203H249.248C249.015 289.203 248.826 289.392 248.826 289.626V297.178C248.826 297.411 249.015 297.6 249.248 297.6Z" fill="#263238"></path>
    <path d="M250.176 297.6H252.615V269.869H250.176V297.6Z" fill="#263238"></path>
    <path d="M278.746 159.014C277.325 166.591 276.469 174.262 276.186 181.965C276 187.904 275.904 192.992 275.814 197.478C275.546 211.424 275.392 219.155 273.197 221.235C272.915 221.427 271.098 222.547 267.296 222.867C266.234 222.957 262.854 223.002 258.259 223.027C243.686 222.982 228.371 222.861 228.128 222.861H227.238C227.2 222.861 227.168 222.931 227.136 222.963C218.381 222.912 216.128 222.861 215.968 222.861H215.078C213.242 224.454 214.336 226.502 215.936 226.515C217.133 226.515 237.99 226.701 252.256 226.701C254.778 226.701 257.152 226.701 259.258 226.701H268.896C276.365 226.701 282.554 226.65 284.256 226.509C289.536 226.074 291.904 224.288 292.154 224.083C295.674 220.96 295.808 214.106 296.134 197.555C296.218 193.075 296.32 187.994 296.499 182.08C296.787 174.344 297.664 166.642 299.123 159.04L278.746 159.014Z" fill="#263238"></path>
    <path d="M165.6 278.509L167.04 286.029C167.04 286.029 165.76 288.749 160.8 290.989C155.84 293.229 153.44 294.189 153.44 294.829C153.44 295.469 153.12 296.909 154.4 297.389C155.68 297.869 182.88 297.389 182.88 297.389C182.88 297.389 184.32 296.749 184.32 293.709C184.32 290.669 183.04 285.069 183.04 283.789C183.04 282.509 182.137 279.424 182.137 278.989C182.137 278.553 171.2 279.149 171.2 279.149C171.2 279.149 168 276.109 165.6 278.509Z" fill="white" stroke="#263238" stroke-width="0.64" stroke-linecap="round" stroke-linejoin="round"></path>
    <path d="M171.2 279.149C171.2 279.149 172 286.349 172.48 286.829C172.96 287.309 183.04 287.309 183.04 287.309" fill="white"></path>
    <path d="M171.2 279.149C171.2 279.149 172 286.349 172.48 286.829C172.96 287.309 183.04 287.309 183.04 287.309" stroke="#263238" stroke-width="0.64" stroke-linecap="round" stroke-linejoin="round"></path>
    <path d="M183.04 283.789L171.84 283.949" stroke="#263238" stroke-width="0.64" stroke-linecap="round" stroke-linejoin="round"></path>
    <path d="M153.44 296.109H184" stroke="#263238" stroke-width="0.64" stroke-linecap="round" stroke-linejoin="round"></path>
    <path d="M185.6 188.32C185.6 188.32 176.73 218.182 175.642 222.298C174.554 226.413 180.838 262.547 180.838 263.194C180.838 263.84 181.702 265.792 181.702 267.955C181.702 270.118 180.838 270.765 181.274 271.418C181.709 272.07 183.194 273.581 183.002 274.88C182.935 275.881 182.475 276.816 181.722 277.478C181.244 277.977 180.65 278.348 179.994 278.56H174.797C174.797 278.56 173.517 268.819 170.035 243.072C166.554 217.325 172.205 202.605 173.286 197.843C174.023 194.771 175.112 191.795 176.531 188.973L185.6 188.32Z" fill="#263238" stroke="#263238" stroke-width="0.64" stroke-linecap="round" stroke-linejoin="round"></path>
    <path d="M158.24 278.509L159.68 286.029C159.68 286.029 158.4 288.749 153.44 290.989C148.48 293.229 146.08 294.189 146.08 294.829C146.08 295.469 145.76 296.909 147.04 297.389C148.32 297.869 175.52 297.389 175.52 297.389C175.52 297.389 176.96 296.749 176.96 293.709C176.96 290.669 175.68 285.069 175.68 283.789C175.68 282.509 174.777 279.424 174.777 278.989C174.777 278.553 163.84 279.149 163.84 279.149C163.84 279.149 160.64 276.109 158.24 278.509Z" fill="white" stroke="#263238" stroke-width="0.64" stroke-linecap="round" stroke-linejoin="round"></path>
    <path d="M163.84 279.149C163.84 279.149 164.64 286.349 165.12 286.829C165.6 287.309 175.68 287.309 175.68 287.309" fill="white"></path>
    <path d="M163.84 279.149C163.84 279.149 164.64 286.349 165.12 286.829C165.6 287.309 175.68 287.309 175.68 287.309" stroke="#263238" stroke-width="0.64" stroke-linecap="round" stroke-linejoin="round"></path>
    <path d="M175.68 283.789L164.48 283.949" stroke="#263238" stroke-width="0.64" stroke-linecap="round" stroke-linejoin="round"></path>
    <path d="M146.08 296.109H176.64" stroke="#263238" stroke-width="0.64" stroke-linecap="round" stroke-linejoin="round"></path>
    <path d="M149.894 188.32C149.894 188.32 149.677 207.149 150.758 215.155C151.84 223.162 155.955 241.773 156.601 251.942C157.248 262.112 158.336 266.88 158.336 266.88C158.336 266.88 156.8 268.16 156.8 269.44C156.8 270.72 157.664 270.72 157.44 272.691C157.216 274.662 156.358 275.283 157.011 276.154C157.664 277.024 158.093 278.746 160.256 279.181C162.419 279.616 172.589 279.398 174.752 278.963C176.915 278.528 177.997 276.365 177.997 274.637C177.997 272.909 177.357 271.61 177.357 269.658C177.357 267.706 178.438 265.984 178.438 264.685C178.438 263.386 178.003 262.733 178.003 261.434C178.003 260.134 175.193 239.366 175.193 235.04C175.193 230.714 174.976 215.994 175.622 212.314C176.269 208.634 179.52 191.11 179.52 191.11L149.894 188.32Z" fill="#465EFD" stroke="#263238" stroke-width="0.64" stroke-linecap="round" stroke-linejoin="round"></path>
    <path d="M163.609 194.669C166.179 195.55 168.858 196.074 171.571 196.224C173.655 196.282 175.733 196.477 177.792 196.806L178.956 191.366L163.609 194.669Z" fill="#263238" stroke="#263238" stroke-width="0.64" stroke-linecap="round" stroke-linejoin="round"></path>
    <path d="M161.235 195.603C161.235 195.603 162.297 225.337 164.435 235.251C166.572 245.165 169.388 261.446 168.684 263.571C167.98 265.696 166.912 270.649 166.912 270.649C166.912 270.649 170.809 269.945 170.809 272.064C170.809 274.182 165.145 275.609 166.56 276.672C167.974 277.734 169.382 278.899 169.382 278.899" stroke="#263238" stroke-width="0.64" stroke-linecap="round" stroke-linejoin="round"></path>
    <path d="M173.811 271.597C173.811 271.597 162.06 273.517 165.395 274.157C168.729 274.797 175.084 273.997 175.404 273.203C175.724 272.41 174.764 271.437 173.811 271.597Z" fill="#263238" stroke="#263238" stroke-width="0.64" stroke-linecap="round" stroke-linejoin="round"></path>
    <path d="M121.945 66.016L121.619 79.3024L134.15 79.1936L134.259 65.9072L121.945 66.016Z" fill="#465EFD"></path>
    <path d="M136.204 90.5343C136.204 90.5343 133.504 87.8335 132.313 85.3503C131.123 82.8671 129.401 81.3567 129.401 79.6287C129.401 77.9007 130.156 73.8687 129.83 72.2815C129.504 70.6943 129.83 67.3151 130.912 67.3151C131.163 67.315 131.411 67.3719 131.637 67.4813C131.863 67.5908 132.061 67.75 132.217 67.947C132.373 68.1441 132.482 68.3738 132.536 68.6191C132.591 68.8643 132.589 69.1186 132.531 69.3631C132.313 70.4447 133.171 74.2271 133.171 74.2271C133.171 74.2271 134.035 66.9887 134.144 66.5471C134.252 66.1055 135.763 66.1119 136.416 66.4383C137.068 66.7647 137.817 66.6495 137.817 68.0575C137.817 69.4655 137.491 71.0783 137.491 71.4047C137.491 71.7311 140.518 73.4591 140.627 74.7519C140.736 76.0447 140.409 79.1807 139.654 80.5119C139.137 81.3172 138.708 82.1754 138.374 83.0719C138.265 83.5007 141.292 88.0382 141.292 88.0382L136.204 90.5343Z" fill="white" stroke="#263238" stroke-width="0.64" stroke-linecap="round" stroke-linejoin="round"></path>
    <path d="M141.241 85.9709L133.881 91.5965C133.881 91.5965 146.432 117.561 146.867 118.4C147.302 119.238 156.384 124.896 156.384 124.896L170.016 108.013C170.016 108.013 152.921 102.605 152.493 101.958C152.064 101.312 141.241 85.9709 141.241 85.9709Z" fill="#263238" stroke="#263238" stroke-width="0.64" stroke-linecap="round" stroke-linejoin="round"></path>
    <path d="M149.92 181.389L149.28 191.469C149.28 191.469 157.6 194.989 166.56 194.829C175.52 194.669 187.52 191.149 187.52 191.149L189.28 181.229C189.28 181.229 167.68 182.989 161.12 182.349C154.56 181.709 149.92 181.389 149.92 181.389Z" fill="white" stroke="#263238" stroke-width="0.64" stroke-linecap="round" stroke-linejoin="round"></path>
    <path d="M143.52 178.189L143.04 181.069C143.04 181.069 149.817 184.768 164.8 186.189C174.02 187.039 183.318 186.06 192.16 183.309L192.32 178.349C184.352 180.248 176.191 181.215 168 181.229C159.76 181.016 151.561 179.997 143.52 178.189Z" fill="#263238" stroke="#263238" stroke-width="0.64" stroke-linecap="round" stroke-linejoin="round"></path>
    <path d="M155.68 118.669C155.68 118.669 150.4 127.949 148.64 135.149C146.88 142.349 143.36 175.629 142.88 177.549C142.4 179.469 153.6 183.309 160.96 183.469C168.32 183.629 184.8 183.949 187.68 182.829C190.56 181.709 193.28 180.109 193.28 178.349C193.28 176.589 193.44 170.029 193.44 164.749C193.44 159.469 191.84 131.629 190.4 125.229C188.96 118.829 188 114.349 187.52 113.549C187.04 112.749 183.52 108.909 176.32 109.389C170.7 109.802 165.239 111.441 160.32 114.189C158.494 115.364 156.918 116.886 155.68 118.669Z" fill="#263238" stroke="#263238" stroke-width="0.64" stroke-linecap="round" stroke-linejoin="round"></path>
    <path d="M107.424 129.011C107.424 129.011 104.826 130.093 104.608 132.691C104.39 135.289 109.158 137.881 111.968 141.779C114.778 145.677 118.458 149.76 118.458 149.76L124.09 157.549L130.797 151.923L113.485 131.84C113.485 131.84 114.349 129.92 113.267 129.241C112.357 128.818 111.372 128.579 110.369 128.54C109.366 128.5 108.365 128.66 107.424 129.011Z" fill="white" stroke="#263238" stroke-width="0.64" stroke-linecap="round" stroke-linejoin="round"></path>
    <path d="M107.859 135.072L127.36 128.576C127.36 128.576 128.64 133.991 134.496 139.616C138.007 142.999 141.77 146.11 145.753 148.922L128.224 158.874L107.859 135.072Z" fill="white" stroke="#263238" stroke-width="0.64" stroke-linecap="round" stroke-linejoin="round"></path>
    <path d="M107.859 135.072C108.718 134.108 109.247 132.895 109.369 131.61C109.427 131.016 109.263 130.421 108.909 129.942C108.554 129.462 108.034 129.13 107.449 129.011L126.707 123.385C126.707 123.385 130.387 124.665 127.347 128.576L107.859 135.072Z" fill="white" stroke="#263238" stroke-width="0.64" stroke-linecap="round" stroke-linejoin="round"></path>
    <path d="M133.664 155.648C133.664 155.648 129.337 155.008 129.12 153.728C128.902 152.448 128.038 149.619 127.2 148.538C126.361 147.456 122.22 145.293 120.921 143.776C119.622 142.259 118.758 140.096 117.894 140.314C117.03 140.531 115.731 141.395 116.16 142.234C116.588 143.072 118.54 146.784 118.54 146.784L118.976 148.294C118.976 148.294 115.078 147.654 114.432 147.43C114.243 147.377 114.044 147.37 113.853 147.412C113.661 147.453 113.482 147.541 113.333 147.667C113.183 147.793 113.066 147.955 112.994 148.137C112.921 148.318 112.894 148.516 112.915 148.71C112.915 149.792 112.051 149.792 113.132 150.438C114.214 151.085 115.513 151.955 115.513 151.955C115.513 151.955 117.03 155.418 117.433 156.064C117.836 156.71 121.331 158.234 121.977 158.662C122.624 159.091 126.092 160.179 127.82 160.582C129.548 160.986 133.446 162.534 133.446 162.534L134.528 157.555L133.664 155.648Z" fill="white" stroke="#263238" stroke-width="0.64" stroke-linecap="round" stroke-linejoin="round"></path>
    <path d="M179.539 125.786C179.539 125.786 179.104 144.179 179.104 145.043C179.104 145.907 179.744 163.655 177.824 165.165C175.904 166.675 166.355 168.627 152.505 168.199C138.656 167.77 132.595 164.736 132.595 164.736L133.677 155.648L160.077 153.728C160.077 153.728 157.267 133.607 157.696 126.682C158.125 119.757 163.757 116.077 163.757 116.077" fill="#263238"></path>
    <path d="M179.539 125.786C179.539 125.786 179.104 144.179 179.104 145.043C179.104 145.907 179.744 163.655 177.824 165.165C175.904 166.675 166.355 168.627 152.505 168.199C138.656 167.77 132.595 164.736 132.595 164.736L133.677 155.648L160.077 153.728C160.077 153.728 157.267 133.607 157.696 126.682C158.125 119.757 163.757 116.077 163.757 116.077" stroke="#263238" stroke-width="0.64" stroke-linecap="round" stroke-linejoin="round"></path>
    <path d="M150.4 169.005C150.4 169.005 176.602 169.92 177.984 166.701C179.366 163.482 179.36 131.763 179.36 131.763" stroke="#707070" stroke-width="0.64" stroke-linecap="round" stroke-linejoin="round"></path>
    <path d="M161.92 119.808C161.92 119.808 156.396 125.785 157.318 133.6C158.24 141.414 160.083 153.696 160.083 153.696L149.964 154.291" stroke="#707070" stroke-width="0.64" stroke-linecap="round" stroke-linejoin="round"></path>
    <path d="M150.739 69.8367C150.739 69.8367 147.11 76.1151 147.808 76.9471C148.505 77.7791 147.948 79.3215 147.948 79.3215C147.948 79.3215 144.32 82.1119 144.601 83.0847C144.883 84.0575 147.801 86.7135 147.801 86.7135C147.801 86.7135 148.358 94.2463 149.081 94.9439C149.804 95.6415 154.521 96.4735 155.481 96.6143C156.011 96.6797 156.528 96.822 157.017 97.0366L159.801 112.096L175.424 98.0158L172.915 91.3214C172.915 91.3214 171.52 82.3614 171.635 78.2142C171.75 74.067 164.518 69.0046 160.198 67.7502C155.878 66.4958 150.739 69.8367 150.739 69.8367Z" fill="white" stroke="#263238" stroke-width="0.64" stroke-linecap="round" stroke-linejoin="round"></path>
    <path d="M153.664 61.3247C153.664 61.3247 150.041 57.5615 145.715 60.4927C141.389 63.4239 142.649 68.1727 146.553 69.8367C150.457 71.5007 155.059 70.2527 153.529 71.9295C152 73.6063 151.609 77.2287 153.945 77.9263C156.281 78.6239 155.897 81.2735 155.897 82.4063C155.897 83.5391 157.817 83.3855 158.272 82.4063C158.726 81.4271 159.801 78.7839 162.451 79.8975C165.101 81.0111 164.966 87.1487 163.987 88.6847C163.008 90.2207 162.035 90.0799 162.035 90.0799C162.035 90.0799 163.571 90.6367 162.592 92.4479L161.619 94.2655C161.619 94.2655 163.846 96.9151 169.427 95.9359C175.008 94.9567 176.262 92.4479 175.424 90.3615C174.585 88.2751 172.633 87.9871 174.726 84.9215C176.819 81.8559 181.984 78.2207 181.561 71.2511C181.286 66.6495 170.406 62.2911 170.406 62.2911C170.406 62.2911 172.915 58.1055 167.206 55.4559C161.497 52.8063 154.937 55.8783 155.353 58.6559C155.769 61.4335 153.664 61.3247 153.664 61.3247Z" fill="#263238" stroke="#263238" stroke-width="0.64" stroke-linecap="round" stroke-linejoin="round"></path>
    <path d="M147.769 76.4477C147.769 76.4477 145.996 75.9741 145.849 76.8125C145.702 77.6509 145.849 81.8301 145.849 81.8301C146.473 82.2182 147.216 82.3682 147.942 82.2525C148.921 81.9709 148.358 78.4829 148.358 78.4829" stroke="#263238" stroke-width="0.64" stroke-linecap="round" stroke-linejoin="round"></path>
    <path d="M158.829 81.1329L145.984 79.0081L145.997 78.2017L158.829 81.1329Z" fill="#263238" stroke="#263238" stroke-width="0.64" stroke-linecap="round" stroke-linejoin="round"></path>
    <path d="M177.241 93.6896C177.241 93.6896 170.124 98.848 165.241 104.147C160.358 109.446 154.502 115.309 154.24 117.12C153.977 118.931 154.515 121.722 157.305 118.79C160.096 115.859 165.254 111.962 169.164 111.68C173.075 111.398 179.065 113.357 182.131 113.773C185.196 114.189 187.155 115.053 188.268 113.357C189.382 111.661 186.457 107.917 186.457 105.958C186.457 104 186.873 100.659 185.478 98.2784C184.083 95.8976 179.609 92.992 177.241 93.6896Z" fill="#757575" stroke="#263238" stroke-width="0.64" stroke-linecap="round" stroke-linejoin="round"></path>
    <path d="M186.355 100.595C185.959 101.95 185.418 103.259 184.742 104.499C183.929 105.709 172.493 108 172.493 108C172.493 108 181.913 107.462 183.661 107.462C185.408 107.462 187.43 109.075 187.43 109.075L186.489 106.515C186.489 106.515 186.88 101.811 186.355 100.595Z" fill="#263238" stroke="#263238" stroke-width="0.64" stroke-linecap="round" stroke-linejoin="round"></path>
    <path d="M20.48 297.6H312.96" stroke="#263238" stroke-width="0.64" stroke-linecap="round" stroke-linejoin="round"></path>
  </symbol>



  <symbol fill="none" xmlns="http://www.w3.org/2000/svg" viewBox="0 0 32 28" id="logo">
    <path d="M25.854 17.5041C25.6396 17.5041 25.429 17.5203 25.2212 17.5445C23.7349 16.687 22.3705 15.3697 21.3632 13.6634C20.3471 11.9427 19.8601 10.1067 19.8464 8.39838C20.5434 7.49147 20.9205 6.38516 20.9203 5.24778C20.9203 2.34941 18.5343 0 15.5911 0C12.6479 0 10.2618 2.34941 10.2618 5.24778C10.2618 6.40092 10.6441 7.46365 11.2839 8.32971C11.2832 10.0574 10.7965 11.9196 9.76711 13.6634C8.76223 15.3652 7.40312 16.6798 5.92137 17.5376C5.72479 17.5154 5.52711 17.504 5.32924 17.5034C2.38607 17.5034 0 19.8528 0 22.7508C0 25.6492 2.38607 28 5.32924 28C7.48931 28 9.34456 26.7313 10.1813 24.9115C11.6935 24.0465 13.5621 23.5272 15.5977 23.5272C17.625 23.5272 19.4866 24.043 20.9953 24.9015C21.8299 26.7268 23.689 27.9997 25.8533 27.9997C28.7965 27.9997 31.1818 25.6496 31.1818 22.7512C31.1825 19.8532 28.7972 17.5041 25.854 17.5041ZM10.1686 20.5646C10.0168 20.2398 9.83153 19.9311 9.61575 19.6434C9.64238 17.954 10.1319 16.1439 11.1343 14.4463C12.1788 12.678 13.6072 11.3278 15.157 10.4745C15.3006 10.4859 15.4446 10.4962 15.5911 10.4962C15.7214 10.4962 15.849 10.4862 15.9772 10.4769C17.5255 11.3306 18.9526 12.6793 19.9957 14.4463C21.0125 16.1674 21.5002 18.0041 21.5139 19.7134C21.3179 19.9844 21.1487 20.2733 21.0086 20.576C19.4974 21.439 17.631 21.9576 15.5984 21.9576C13.5564 21.9576 11.6833 21.4342 10.1686 20.5646Z" fill="#465EFD"></path>
  </symbol>
  <symbol fill="none" xmlns="http://www.w3.org/2000/svg" viewBox="0 0 142 20" id="logo-title">
    <path d="M15.2252 19.3403V0.341431H11.4227V12.8617L4.09622 0.341431H0.0288086V19.3403H3.83129V6.83316L11.1578 19.3403H15.2252Z" fill="#465EFD"></path>
    <path d="M30.959 19.3403V15.5378H21.7377V11.7485H27.978V7.9464H21.7377V4.14391H30.959V0.341431H17.9355V19.3403H30.959Z" fill="#465EFD"></path>
    <path d="M40.7841 19.3403V4.14391H46.481V0.341431H31.2847V4.14391H36.9948V19.3403H40.7841Z" fill="#465EFD"></path>
    <path d="M65.699 9.92039C65.699 9.01933 65.5821 8.14954 65.3477 7.31028C65.1137 6.4714 64.7847 5.68943 64.3607 4.96511C63.9368 4.24117 63.4246 3.57865 62.8239 2.97794C62.2232 2.37723 61.5611 1.86509 60.8367 1.44112C60.1124 1.01716 59.3308 0.688163 58.4916 0.454135C57.6527 0.220107 56.7825 0.102905 55.8815 0.102905C54.9808 0.102905 54.1129 0.220107 53.2781 0.454135C52.4434 0.688163 51.6618 1.01716 50.933 1.44112C50.2045 1.86509 49.5397 2.37723 48.939 2.97794C48.3387 3.57865 47.8239 4.24117 47.3958 4.96511C46.9673 5.68943 46.636 6.4714 46.402 7.31028C46.168 8.14954 46.0508 9.01933 46.0508 9.92039C46.0508 10.8215 46.168 11.689 46.402 12.5237C46.636 13.3585 46.9673 14.1401 47.3958 14.8689C47.8239 15.5974 48.3387 16.2621 48.939 16.8628C49.5397 17.4636 50.2045 17.978 50.933 18.4061C51.6618 18.8346 52.4434 19.1658 53.2781 19.3998C54.1129 19.6339 54.9808 19.7511 55.8815 19.7511C56.7825 19.7511 57.6527 19.6339 58.4916 19.3998C59.3308 19.1658 60.1124 18.8346 60.8367 18.4061C61.5611 17.978 62.2232 17.4636 62.8239 16.8628C63.4246 16.2621 63.9368 15.5974 64.3607 14.8689C64.7847 14.1401 65.1137 13.3585 65.3477 12.5237C65.5821 11.689 65.699 10.8215 65.699 9.92039ZM61.9232 9.92039C61.9232 10.7506 61.7642 11.5299 61.4461 12.2588C61.1281 12.9876 60.6977 13.6256 60.1543 14.1732C59.6112 14.7208 58.9709 15.1538 58.2334 15.4715C57.4959 15.7896 56.7117 15.9486 55.8815 15.9486C55.0426 15.9486 54.2565 15.7896 53.5231 15.4715C52.7901 15.1538 52.1498 14.7208 51.6023 14.1732C51.0547 13.6256 50.6217 12.9876 50.304 12.2588C49.9859 11.5299 49.8269 10.7506 49.8269 9.92039C49.8269 9.09018 49.9859 8.30632 50.304 7.56881C50.6217 6.8313 51.0547 6.19064 51.6023 5.64759C52.1498 5.10454 52.7901 4.6738 53.5231 4.35573C54.2565 4.03804 55.0426 3.87901 55.8815 3.87901C56.7117 3.87901 57.4955 4.03804 58.2334 4.35573C58.9709 4.6738 59.6112 5.10454 60.1543 5.64759C60.6977 6.19064 61.1281 6.8313 61.4461 7.56881C61.7642 8.30632 61.9232 9.09018 61.9232 9.92039Z" fill="#465EFD"></path>
    <path d="M86.2288 13.9083V0.341431H82.4395V13.9083C82.4395 14.1732 82.3886 14.4227 82.2873 14.6567C82.1855 14.8907 82.0487 15.0939 81.8765 15.2661C81.7043 15.4383 81.5034 15.5732 81.2735 15.6704C81.044 15.7677 80.7968 15.8159 80.5319 15.8159C80.2666 15.8159 80.0194 15.7677 79.7898 15.6704C79.56 15.5732 79.3591 15.4383 79.1869 15.2661C79.0147 15.0939 78.8801 14.8907 78.7829 14.6567C78.6857 14.4227 78.637 14.1732 78.637 13.9083V0.341431H74.8346V13.9083C74.8346 14.1732 74.7859 14.4227 74.6891 14.6567C74.5919 14.8907 74.4569 15.0939 74.2847 15.2661C74.1125 15.4383 73.9116 15.5732 73.6821 15.6704C73.4523 15.7677 73.205 15.8159 72.9401 15.8159C72.6752 15.8159 72.428 15.7677 72.1981 15.6704C71.9686 15.5732 71.7677 15.4383 71.5955 15.2661C71.4233 15.0939 71.2883 14.8907 71.1911 14.6567C71.0943 14.4227 71.0456 14.1732 71.0456 13.9083V0.341431H67.2432V13.9083C67.2432 14.6944 67.3909 15.4342 67.6871 16.1276C67.9829 16.8206 68.3892 17.4258 68.9059 17.9425C69.4225 18.4592 70.0278 18.8654 70.7208 19.1613C71.4142 19.4575 72.154 19.6052 72.9401 19.6052C73.6467 19.6052 74.3269 19.4816 74.9804 19.2344C75.6339 18.9868 76.2214 18.625 76.7426 18.1479C77.2638 18.625 77.8487 18.9868 78.498 19.2344C79.1473 19.4816 79.8253 19.6052 80.5319 19.6052C81.318 19.6052 82.0574 19.4575 82.7508 19.1613C83.4442 18.8654 84.0495 18.4592 84.5661 17.9425C85.0828 17.4258 85.489 16.8206 85.7849 16.1276C86.0807 15.4342 86.2288 14.6944 86.2288 13.9083Z" fill="#465EFD"></path>
    <path d="M107.421 9.92039C107.421 9.01933 107.304 8.14954 107.07 7.31028C106.836 6.4714 106.507 5.68943 106.083 4.96511C105.659 4.24117 105.147 3.57865 104.546 2.97794C103.946 2.37723 103.283 1.86509 102.559 1.44112C101.835 1.01716 101.053 0.688163 100.214 0.454135C99.375 0.220107 98.5048 0.102905 97.6041 0.102905C96.703 0.102905 95.8352 0.220107 95.0004 0.454135C94.1657 0.688163 93.3841 1.01716 92.6556 1.44112C91.9268 1.86509 91.262 2.37723 90.6617 2.97794C90.061 3.57865 89.5465 4.24117 89.1181 4.96511C88.6896 5.68943 88.3583 6.4714 88.1243 7.31028C87.8903 8.14954 87.7734 9.01933 87.7734 9.92039C87.7734 10.8215 87.8903 11.689 88.1243 12.5237C88.3583 13.3585 88.6896 14.1401 89.1181 14.8689C89.5465 15.5974 90.061 16.2621 90.6617 16.8628C91.262 17.4636 91.9268 17.978 92.6556 18.4061C93.3841 18.8346 94.1657 19.1658 95.0004 19.3998C95.8352 19.6339 96.703 19.7511 97.6041 19.7511C98.5048 19.7511 99.375 19.6339 100.214 19.3998C101.053 19.1658 101.835 18.8346 102.559 18.4061C103.283 17.978 103.946 17.4636 104.546 16.8628C105.147 16.2621 105.659 15.5974 106.083 14.8689C106.507 14.1401 106.836 13.3585 107.07 12.5237C107.304 11.689 107.421 10.8215 107.421 9.92039ZM103.646 9.92039C103.646 10.7506 103.486 11.5299 103.168 12.2588C102.85 12.9876 102.42 13.6256 101.877 14.1732C101.333 14.7208 100.693 15.1538 99.9557 15.4715C99.2182 15.7896 98.4343 15.9486 97.6041 15.9486C96.7649 15.9486 95.9787 15.7896 95.2457 15.4715C94.5124 15.1538 93.8721 14.7208 93.3245 14.1732C92.777 13.6256 92.3443 12.9876 92.0263 12.2588C91.7082 11.5299 91.5492 10.7506 91.5492 9.92039C91.5492 9.09018 91.7082 8.30632 92.0263 7.56881C92.3443 6.8313 92.777 6.19064 93.3245 5.64759C93.8721 5.10454 94.5124 4.6738 95.2457 4.35573C95.9787 4.03804 96.7649 3.87901 97.6041 3.87901C98.4343 3.87901 99.2182 4.03804 99.9557 4.35573C100.693 4.6738 101.333 5.10454 101.877 5.64759C102.42 6.19064 102.85 6.8313 103.168 7.56881C103.486 8.30632 103.646 9.09018 103.646 9.92039Z" fill="#465EFD"></path>
    <path d="M112.901 4.14391H116.703C117.224 4.14391 117.714 4.24303 118.174 4.44201C118.633 4.64061 119.035 4.91232 119.379 5.25677C119.724 5.60122 119.995 6.00521 120.194 6.46912C120.393 6.93265 120.492 7.4252 120.492 7.9464C120.492 8.46721 120.393 8.95976 120.194 9.42367C119.995 9.88721 119.724 10.2912 119.379 10.6356C119.035 10.9801 118.633 11.2518 118.174 11.4504C117.714 11.6494 117.224 11.7485 116.703 11.7485H112.901V4.14391ZM112.901 19.3403V15.5378L117.153 15.5114L118.809 19.3403H122.85L120.744 14.3718C121.291 14.0274 121.786 13.6211 122.228 13.153C122.669 12.685 123.043 12.1725 123.347 11.6162C123.652 11.0596 123.886 10.4725 124.05 9.85404C124.213 9.23562 124.295 8.59986 124.295 7.9464C124.295 7.24846 124.204 6.57728 124.023 5.93247C123.842 5.28767 123.586 4.68282 123.254 4.11716C122.923 3.55187 122.526 3.03746 122.062 2.57393C121.598 2.11002 121.086 1.71281 120.525 1.38156C119.964 1.0503 119.361 0.794036 118.717 0.613144C118.072 0.431876 117.401 0.341431 116.703 0.341431H109.098V19.3403H112.901Z" fill="#465EFD"></path>
    <path d="M129.774 19.3403V15.5378L132.675 11.6558L136.849 19.3403H141.168L135.166 8.35679L141.168 0.341431H136.849L129.774 9.84085V0.341431H125.971V19.3403H129.774Z" fill="#465EFD"></path>
  </symbol>

 <symbol fill="none" xmlns="http://www.w3.org/2000/svg" viewBox="0 0 20 20" id="pen">
    <path d="M11.0201 3.828L13.8501 1L18.7991 5.95L15.9701 8.778M11.0201 3.828L1.41409 13.435C1.22654 13.6225 1.12115 13.8768 1.12109 14.142V18.678H5.65709C5.92229 18.6779 6.1766 18.5725 6.36409 18.385L15.9701 8.778M11.0201 3.828L15.9701 8.778" stroke="currentColor" stroke-width="1.5" stroke-linecap="round" stroke-linejoin="round"></path>
  </symbol>


  <symbol fill="none" xmlns="http://www.w3.org/2000/svg" viewBox="0 0 14 14" id="plus">
    <path d="M1 7H7M13 7H7M7 7V1M7 7V13" stroke="currentColor" stroke-width="1.5" stroke-linecap="round" stroke-linejoin="round"></path>
  </symbol>

    <earcymbol fill="none" xmlns="http://www.w3.org/2000/svg" viewBox="0 0 24 24" id="file">
    <path d="M4 21.4V2.6C4 2.44087 4.06321 2.28826 4.17574 2.17574C4.28826 2.06321 4.44087 2 4.6 2H16.252C16.4111 2.00014 16.5636 2.06345 16.676 2.176L19.824 5.324C19.88 5.3799 19.9243 5.44632 19.9545 5.51943C19.9847 5.59254 20.0002 5.6709 20 5.75V21.4C20 21.4788 19.9845 21.5568 19.9543 21.6296C19.9242 21.7024 19.88 21.7685 19.8243 21.8243C19.7685 21.88 19.7024 21.9242 19.6296 21.9543C19.5568 21.9845 19.4788 22 19.4 22H4.6C4.52121 22 4.44319 21.9845 4.37039 21.9543C4.29759 21.9242 4.23145 21.88 4.17574 21.8243C4.12002 21.7685 4.07583 21.7024 4.04567 21.6296C4.01552 21.5568 4 21.4788 4 21.4V21.4Z" stroke="currentColor" stroke-width="1.5" stroke-linecap="round" stroke-linejoin="round"></path>
    <path d="M16 2V5.4C16 5.55913 16.0632 5.71174 16.1757 5.82426C16.2883 5.93679 16.4409 6 16.6 6H20" stroke="currentColor" stroke-width="1.5" stroke-linecap="round" stroke-linejoin="round"></path>
  </earcymbol>
  <symbol fill="none" xmlns="http://www.w3.org/2000/svg" viewBox="0 0 24 24" id="garbage">
    <path d="M14.74 9.00003L14.394 18M9.606 18L9.26 9.00003M19.228 5.79003C19.57 5.84203 19.91 5.89703 20.25 5.95603M19.228 5.79103L18.16 19.673C18.1164 20.2383 17.8611 20.7662 17.445 21.1513C17.029 21.5364 16.4829 21.7502 15.916 21.75H8.084C7.5171 21.7502 6.97102 21.5364 6.55498 21.1513C6.13894 20.7662 5.88359 20.2383 5.84 19.673L4.772 5.79003M19.228 5.79003C18.0739 5.61555 16.9138 5.48313 15.75 5.39303M3.75 5.95503C4.09 5.89603 4.43 5.84103 4.772 5.79003M4.772 5.79003C5.92613 5.61555 7.08623 5.48313 8.25 5.39303M15.75 5.39303V4.47703C15.75 3.29703 14.84 2.31303 13.66 2.27603C12.5536 2.24067 11.4464 2.24067 10.34 2.27603C9.16 2.31303 8.25 3.29803 8.25 4.47703V5.39303M15.75 5.39303C13.2537 5.20011 10.7463 5.20011 8.25 5.39303" stroke="currentColor" stroke-width="1.5" stroke-linecap="round" stroke-linejoin="round"></path>
  </symbol>

  <symbol fill="none" xmlns="http://www.w3.org/2000/svg" viewBox="0 0 16 16" id="search">
    <path d="M11.5 11.5L15 15M1 7C1 7.78793 1.15519 8.56815 1.45672 9.2961C1.75825 10.0241 2.20021 10.6855 2.75736 11.2426C3.31451 11.7998 3.97595 12.2417 4.7039 12.5433C5.43185 12.8448 6.21207 13 7 13C7.78793 13 8.56815 12.8448 9.2961 12.5433C10.0241 12.2417 10.6855 11.7998 11.2426 11.2426C11.7998 10.6855 12.2417 10.0241 12.5433 9.2961C12.8448 8.56815 13 7.78793 13 7C13 5.4087 12.3679 3.88258 11.2426 2.75736C10.1174 1.63214 8.5913 1 7 1C5.4087 1 3.88258 1.63214 2.75736 2.75736C1.63214 3.88258 1 5.4087 1 7V7Z" stroke="#2C2D2E" stroke-width="1.5" stroke-linecap="round" stroke-linejoin="round"></path>
  </symbol>

<symbol fill="none" xmlns="http://www.w3.org/2000/svg" viewBox="0 0 14 14" id="filter">
    <path d="M1.66667 1H12.3333C12.5101 1 12.6797 1.07024 12.8047 1.19526C12.9298 1.32029 13 1.48986 13 1.66667V2.724C13 2.9008 12.9297 3.07034 12.8047 3.19533L8.528 7.47133C8.40321 7.59644 8.33319 7.76597 8.33333 7.94267V12.146C8.33333 12.2473 8.31023 12.3473 8.26578 12.4384C8.22133 12.5295 8.1567 12.6092 8.07681 12.6716C7.99692 12.7339 7.90387 12.7772 7.80473 12.7982C7.70559 12.8192 7.60297 12.8173 7.50467 12.7927L6.17133 12.4593C6.02717 12.4232 5.89921 12.34 5.80777 12.2228C5.71634 12.1056 5.66667 11.9613 5.66667 11.8127V7.94267C5.66663 7.76587 5.59637 7.59633 5.47133 7.47133L1.19467 3.19533C1.06988 3.07023 0.999861 2.9007 1 2.724V1.66667C1 1.48986 1.07024 1.32029 1.19526 1.19526C1.32029 1.07024 1.48986 1 1.66667 1V1Z" stroke="currentColor" stroke-linecap="round" stroke-linejoin="round"></path>
  </symbol>
  <symbol fill="none" xmlns="http://www.w3.org/2000/svg" viewBox="0 0 16 11" id="sort">
    <path d="M9.33301 3.66667H1.33301M6.66634 6.33333H1.33301M3.99967 9H1.33301M11.9997 1H1.33301M12.6663 3.66667V10.3333M12.6663 10.3333L14.6663 8.33333M12.6663 10.3333L10.6663 8.33333" stroke="currentColor" stroke-linecap="round" stroke-linejoin="round"></path>
  </symbol>

    <symbol fill="none" xmlns="http://www.w3.org/2000/svg" viewBox="0 0 14 8" id="arrow">
    <path d="M1 1L7 7L13 1" stroke="currentColor" stroke-width="1.5" stroke-linecap="round" stroke-linejoin="round"></path>
  </symbol>

    <symbol fill="none" xmlns="http://www.w3.org/2000/svg" viewBox="0 0 24 24" id="tablet-filter">
    <g clip-path="url(#clip0_7887_101905)">
      <path d="M12 10.125V20.25" stroke="currentColor" stroke-width="1.5" stroke-linecap="round" stroke-linejoin="round"></path>
      <path d="M12 3.75V6.375" stroke="currentColor" stroke-width="1.5" stroke-linecap="round" stroke-linejoin="round"></path>
      <path d="M12 10.125C13.0355 10.125 13.875 9.28553 13.875 8.25C13.875 7.21447 13.0355 6.375 12 6.375C10.9645 6.375 10.125 7.21447 10.125 8.25C10.125 9.28553 10.9645 10.125 12 10.125Z" stroke="currentColor" stroke-width="1.5" stroke-linecap="round" stroke-linejoin="round"></path>
      <path d="M18.75 17.625V20.25" stroke="currentColor" stroke-width="1.5" stroke-linecap="round" stroke-linejoin="round"></path>
      <path d="M18.75 3.75V13.875" stroke="currentColor" stroke-width="1.5" stroke-linecap="round" stroke-linejoin="round"></path>
      <path d="M18.75 17.625C19.7855 17.625 20.625 16.7855 20.625 15.75C20.625 14.7145 19.7855 13.875 18.75 13.875C17.7145 13.875 16.875 14.7145 16.875 15.75C16.875 16.7855 17.7145 17.625 18.75 17.625Z" stroke="currentColor" stroke-width="1.5" stroke-linecap="round" stroke-linejoin="round"></path>
      <path d="M5.25 14.625V20.25" stroke="currentColor" stroke-width="1.5" stroke-linecap="round" stroke-linejoin="round"></path>
      <path d="M5.25 3.75V10.875" stroke="currentColor" stroke-width="1.5" stroke-linecap="round" stroke-linejoin="round"></path>
      <path d="M5.25 14.625C6.28553 14.625 7.125 13.7855 7.125 12.75C7.125 11.7145 6.28553 10.875 5.25 10.875C4.21447 10.875 3.375 11.7145 3.375 12.75C3.375 13.7855 4.21447 14.625 5.25 14.625Z" stroke="currentColor" stroke-width="1.5" stroke-linecap="round" stroke-linejoin="round"></path>
    </g>
    <defs>
      <clipPath id="clip0_7887_101905">
        <rect width="24" height="24" fill="white"></rect>
      </clipPath>
    </defs>
  </symbol>

    <symbol fill="none" xmlns="http://www.w3.org/2000/svg" viewBox="0 0 24 24" id="comp">
    <path d="M2 21H17M21 21H22" stroke="currentColor" stroke-width="2" stroke-linecap="round" stroke-linejoin="round"></path>
    <path d="M2 16.4V3.6C2 3.44087 2.06321 3.28826 2.17574 3.17574C2.28826 3.06321 2.44087 3 2.6 3H21.4C21.5591 3 21.7117 3.06321 21.8243 3.17574C21.9368 3.28826 22 3.44087 22 3.6V16.4C22 16.5591 21.9368 16.7117 21.8243 16.8243C21.7117 16.9368 21.5591 17 21.4 17H2.6C2.44087 17 2.28826 16.9368 2.17574 16.8243C2.06321 16.7117 2 16.5591 2 16.4V16.4Z" stroke="currentColor" stroke-width="1.5"></path>
  </symbol>


  <symbol fill="none" xmlns="http://www.w3.org/2000/svg" viewBox="0 0 24 25" id="share">
    <path d="M18 22.5C18.7956 22.5 19.5587 22.1839 20.1213 21.6213C20.6839 21.0587 21 20.2956 21 19.5C21 18.7044 20.6839 17.9413 20.1213 17.3787C19.5587 16.8161 18.7956 16.5 18 16.5C17.2044 16.5 16.4413 16.8161 15.8787 17.3787C15.3161 17.9413 15 18.7044 15 19.5C15 20.2956 15.3161 21.0587 15.8787 21.6213C16.4413 22.1839 17.2044 22.5 18 22.5ZM18 8.5C18.7956 8.5 19.5587 8.18393 20.1213 7.62132C20.6839 7.05871 21 6.29565 21 5.5C21 4.70435 20.6839 3.94129 20.1213 3.37868C19.5587 2.81607 18.7956 2.5 18 2.5C17.2044 2.5 16.4413 2.81607 15.8787 3.37868C15.3161 3.94129 15 4.70435 15 5.5C15 6.29565 15.3161 7.05871 15.8787 7.62132C16.4413 8.18393 17.2044 8.5 18 8.5ZM6 15.5C6.79565 15.5 7.55871 15.1839 8.12132 14.6213C8.68393 14.0587 9 13.2956 9 12.5C9 11.7044 8.68393 10.9413 8.12132 10.3787C7.55871 9.81607 6.79565 9.5 6 9.5C5.20435 9.5 4.44129 9.81607 3.87868 10.3787C3.31607 10.9413 3 11.7044 3 12.5C3 13.2956 3.31607 14.0587 3.87868 14.6213C4.44129 15.1839 5.20435 15.5 6 15.5V15.5Z" stroke="currentColor" stroke-width="1.5" stroke-linecap="round" stroke-linejoin="round"></path>
    <path d="M15.5 7L8.5 11M8.5 14L15.5 18" stroke="currentColor" stroke-width="1.5"></path>
	</symbol>
</svg>

